<svg width="3153" height="2863" viewBox="0 0 3153 2863" fill="none" xmlns="http://www.w3.org/2000/svg">
<path d="M2911.52 927.065C2810.47 657.602 2632.92 427.126 2397.15 260.289C2156.81 90.0118 1873.08 0 1577.36 0C1225.12 0 886.585 130.144 625.12 366.354C375.643 591.67 213.511 896.678 166.699 1228.06C71.9316 1246.41 0 1330.11 0 1431.02C0 1545.11 92.4834 1637.41 205.519 1637.41C319.125 1637.41 411.038 1544.53 411.038 1431.02C411.038 1341 353.378 1264.18 273.454 1236.09C317.983 932.224 466.984 653.016 696.48 446.046C938.536 227.61 1251.38 107.212 1577.36 107.212C1850.81 107.212 2112.85 190.343 2335.49 348.008C2538.73 491.912 2695.72 686.842 2791.63 915.025L2391.44 1065.81C2325.79 918.465 2222.46 792.333 2089.44 698.308C1938.73 591.67 1761.75 535.484 1576.79 535.484C1085.25 535.484 685.062 937.384 685.062 1431.02V1484.34H1271.36V1377.12H793.531C820.933 967.197 1161.75 642.123 1576.79 642.123C1739.49 642.123 1895.34 692.002 2027.79 785.453C2157.38 877.185 2255.57 1004.46 2311.52 1152.38L2330.35 1202.26L2929.78 976.37L2911.52 927.065ZM304.853 1431.02C304.853 1486.06 260.324 1530.2 206.09 1530.2C151.856 1530.2 107.326 1485.48 107.326 1431.02C107.326 1376.55 151.856 1331.83 206.09 1331.83C260.324 1331.83 304.853 1375.98 304.853 1431.02Z" fill="url(#paint0_linear_45_622)"/>
<path d="M3153 1431.02C3153 1316.93 3060.52 1224.62 2947.48 1224.62C2833.87 1224.62 2741.96 1317.5 2741.96 1431.02C2741.96 1521.03 2799.62 1597.86 2879.55 1625.95C2835.02 1929.81 2686.01 2209.02 2456.52 2415.99C2214.46 2634.43 1901.62 2754.82 1575.64 2754.82C1302.19 2754.82 1040.15 2671.69 817.507 2514.03C614.272 2370.12 457.278 2175.19 361.37 1947.01L761.56 1796.23C827.212 1943.57 930.542 2069.7 1063.56 2163.73C1214.27 2270.36 1391.25 2326.55 1576.21 2326.55C2067.75 2326.55 2467.94 1924.65 2467.94 1431.02V1377.7H1880.5V1484.91H2358.33C2330.92 1894.84 1990.11 2219.91 1575.07 2219.91C1412.37 2219.91 1256.52 2170.03 1124.07 2076.58C994.482 1984.85 896.289 1857.57 840.343 1709.65L821.503 1659.78L222.645 1885.09L241.484 1934.97C342.53 2204.43 520.076 2434.91 755.852 2601.75C996.765 2772.02 1279.92 2862.03 1575.64 2862.03C1927.88 2862.03 2266.41 2731.89 2527.88 2495.68C2777.36 2270.36 2939.49 1965.36 2986.3 1633.98C3081.07 1615.63 3153 1531.92 3153 1431.02ZM2947.48 1530.78C2892.68 1530.78 2848.72 1486.06 2848.72 1431.59C2848.72 1376.55 2893.25 1332.41 2947.48 1332.41C3002.29 1332.41 3046.24 1377.13 3046.24 1431.59C3046.24 1486.06 3002.29 1530.78 2947.48 1530.78Z" fill="url(#paint1_linear_45_622)"/>
<path d="M1577.36 1791.06C1379.83 1791.06 1218.84 1629.38 1218.84 1431.01C1218.84 1232.64 1379.83 1070.97 1577.36 1070.97C1774.89 1070.97 1935.88 1232.64 1935.88 1431.01C1936.45 1629.38 1775.46 1791.06 1577.36 1791.06ZM1577.36 1178.18C1438.63 1178.18 1325.6 1291.7 1325.6 1431.01C1325.6 1570.33 1438.63 1683.85 1577.36 1683.85C1716.08 1683.85 1829.12 1570.33 1829.12 1431.01C1829.69 1291.7 1716.66 1178.18 1577.36 1178.18Z" fill="#D30D60"/>
<defs>
<linearGradient id="paint0_linear_45_622" x1="1269.24" y1="818.672" x2="211.776" y2="818.672" gradientUnits="userSpaceOnUse">
<stop offset="0.0389" stop-color="#D30D60"/>
<stop offset="1" stop-color="#2C2660"/>
</linearGradient>
<linearGradient id="paint1_linear_45_622" x1="1876.8" y1="2043.41" x2="2949.66" y2="2043.41" gradientUnits="userSpaceOnUse">
<stop offset="0.0389" stop-color="#D30D60"/>
<stop offset="1" stop-color="#2C2660"/>
</linearGradient>
</defs>
</svg>
